<!DOCTYPE svg PUBLIC "-//W3C//DTD SVG 1.1//EN" "http://www.w3.org/Graphics/SVG/1.1/DTD/svg11.dtd">
<!-- Uploaded to: SVG Repo, www.svgrepo.com, Transformed by: SVG Repo Mixer Tools -->
<svg fill="#c9c9c9" height="800px" width="800px" version="1.1" id="Capa_1" xmlns="http://www.w3.org/2000/svg" xmlns:xlink="http://www.w3.org/1999/xlink" viewBox="0 0 429.6 429.6" xml:space="preserve" stroke="#c9c9c9" stroke-width="5.1552">
<g id="SVGRepo_bgCarrier" stroke-width="0"/>
<g id="SVGRepo_tracerCarrier" stroke-linecap="round" stroke-linejoin="round"/>
<g id="SVGRepo_iconCarrier"> <path id="XMLID_475_" d="M429.6,214.8c0,5.523-4.478,10-10,10h-22.069l-48.271,48.272c-1.953,1.953-4.512,2.929-7.071,2.929 s-5.118-0.976-7.071-2.929c-3.905-3.905-3.905-10.237,0-14.142l44.13-44.131l-44.13-44.129c-3.905-3.905-3.905-10.237,0-14.143 c3.906-3.904,10.236-3.904,14.143,0l48.271,48.272H419.6C425.123,204.8,429.6,209.277,429.6,214.8z M198.589,214.799 c0,3.343-1.671,6.466-4.453,8.32l-76.8,51.202c-1.673,1.116-3.608,1.68-5.548,1.68c-1.618,0-3.239-0.392-4.718-1.183 c-3.252-1.74-5.282-5.129-5.282-8.817V224.8H10c-5.523,0-10-4.477-10-10s4.477-10,10-10h91.789v-41.201 c0-3.688,2.03-7.077,5.281-8.817c3.252-1.739,7.197-1.549,10.266,0.497l76.8,51.2C196.918,208.333,198.589,211.455,198.589,214.799z M170.562,214.799l-48.773-32.515v65.032L170.562,214.799z M338.896,207.728l-51.2-51.201c-3.906-3.904-10.236-3.904-14.143,0 c-3.905,3.905-3.905,10.237,0,14.143l34.13,34.13H239.79c-5.522,0-10,4.477-10,10s4.478,10,10,10h67.893l-34.129,34.13 c-3.905,3.905-3.905,10.237,0,14.142c1.953,1.953,4.512,2.929,7.071,2.929s5.118-0.977,7.071-2.929l51.2-51.202 C342.801,217.964,342.801,211.633,338.896,207.728z"/> </g>
</svg>